%TF.GenerationSoftware,KiCad,Pcbnew,(5.1.6)-1*%
%TF.CreationDate,2020-12-13T00:36:31+01:00*%
%TF.ProjectId,Ingressi,496e6772-6573-4736-992e-6b696361645f,v1.0*%
%TF.SameCoordinates,Original*%
%TF.FileFunction,Copper,L1,Top*%
%TF.FilePolarity,Positive*%
%FSLAX46Y46*%
G04 Gerber Fmt 4.6, Leading zero omitted, Abs format (unit mm)*
G04 Created by KiCad (PCBNEW (5.1.6)-1) date 2020-12-13 00:36:31*
%MOMM*%
%LPD*%
G01*
G04 APERTURE LIST*
%TA.AperFunction,ComponentPad*%
%ADD10C,2.700000*%
%TD*%
%TA.AperFunction,ComponentPad*%
%ADD11O,2.080000X3.600000*%
%TD*%
%TA.AperFunction,Conductor*%
%ADD12C,0.254000*%
%TD*%
G04 APERTURE END LIST*
%TO.P,J2,2-*%
%TO.N,Net-(J1-Pad2-)*%
%TA.AperFunction,ComponentPad*%
G36*
G01*
X102164200Y-47933000D02*
X102164200Y-52433000D01*
G75*
G02*
X101414200Y-53183000I-750000J0D01*
G01*
X99914200Y-53183000D01*
G75*
G02*
X99164200Y-52433000I0J750000D01*
G01*
X99164200Y-47933000D01*
G75*
G02*
X99914200Y-47183000I750000J0D01*
G01*
X101414200Y-47183000D01*
G75*
G02*
X102164200Y-47933000I0J-750000D01*
G01*
G37*
%TD.AperFunction*%
%TO.P,J2,2+*%
%TO.N,Net-(J1-Pad2+)*%
%TA.AperFunction,ComponentPad*%
G36*
G01*
X92750000Y-52366000D02*
X97250000Y-52366000D01*
G75*
G02*
X98000000Y-53116000I0J-750000D01*
G01*
X98000000Y-54616000D01*
G75*
G02*
X97250000Y-55366000I-750000J0D01*
G01*
X92750000Y-55366000D01*
G75*
G02*
X92000000Y-54616000I0J750000D01*
G01*
X92000000Y-53116000D01*
G75*
G02*
X92750000Y-52366000I750000J0D01*
G01*
G37*
%TD.AperFunction*%
%TO.P,J2,1-*%
%TO.N,Net-(J1-Pad1-)*%
%TA.AperFunction,ComponentPad*%
G36*
G01*
X90861200Y-47933000D02*
X90861200Y-52433000D01*
G75*
G02*
X90111200Y-53183000I-750000J0D01*
G01*
X88611200Y-53183000D01*
G75*
G02*
X87861200Y-52433000I0J750000D01*
G01*
X87861200Y-47933000D01*
G75*
G02*
X88611200Y-47183000I750000J0D01*
G01*
X90111200Y-47183000D01*
G75*
G02*
X90861200Y-47933000I0J-750000D01*
G01*
G37*
%TD.AperFunction*%
%TO.P,J2,1+*%
%TO.N,Net-(J1-Pad1+)*%
%TA.AperFunction,ComponentPad*%
G36*
G01*
X97250000Y-48000000D02*
X92750000Y-48000000D01*
G75*
G02*
X92000000Y-47250000I0J750000D01*
G01*
X92000000Y-45750000D01*
G75*
G02*
X92750000Y-45000000I750000J0D01*
G01*
X97250000Y-45000000D01*
G75*
G02*
X98000000Y-45750000I0J-750000D01*
G01*
X98000000Y-47250000D01*
G75*
G02*
X97250000Y-48000000I-750000J0D01*
G01*
G37*
%TD.AperFunction*%
%TD*%
%TO.P,J1,2-*%
%TO.N,Net-(J1-Pad2-)*%
%TA.AperFunction,ComponentPad*%
G36*
G01*
X62164200Y-47933000D02*
X62164200Y-52433000D01*
G75*
G02*
X61414200Y-53183000I-750000J0D01*
G01*
X59914200Y-53183000D01*
G75*
G02*
X59164200Y-52433000I0J750000D01*
G01*
X59164200Y-47933000D01*
G75*
G02*
X59914200Y-47183000I750000J0D01*
G01*
X61414200Y-47183000D01*
G75*
G02*
X62164200Y-47933000I0J-750000D01*
G01*
G37*
%TD.AperFunction*%
%TO.P,J1,2+*%
%TO.N,Net-(J1-Pad2+)*%
%TA.AperFunction,ComponentPad*%
G36*
G01*
X52750000Y-52366000D02*
X57250000Y-52366000D01*
G75*
G02*
X58000000Y-53116000I0J-750000D01*
G01*
X58000000Y-54616000D01*
G75*
G02*
X57250000Y-55366000I-750000J0D01*
G01*
X52750000Y-55366000D01*
G75*
G02*
X52000000Y-54616000I0J750000D01*
G01*
X52000000Y-53116000D01*
G75*
G02*
X52750000Y-52366000I750000J0D01*
G01*
G37*
%TD.AperFunction*%
%TO.P,J1,1-*%
%TO.N,Net-(J1-Pad1-)*%
%TA.AperFunction,ComponentPad*%
G36*
G01*
X50861200Y-47933000D02*
X50861200Y-52433000D01*
G75*
G02*
X50111200Y-53183000I-750000J0D01*
G01*
X48611200Y-53183000D01*
G75*
G02*
X47861200Y-52433000I0J750000D01*
G01*
X47861200Y-47933000D01*
G75*
G02*
X48611200Y-47183000I750000J0D01*
G01*
X50111200Y-47183000D01*
G75*
G02*
X50861200Y-47933000I0J-750000D01*
G01*
G37*
%TD.AperFunction*%
%TO.P,J1,1+*%
%TO.N,Net-(J1-Pad1+)*%
%TA.AperFunction,ComponentPad*%
G36*
G01*
X57250000Y-48000000D02*
X52750000Y-48000000D01*
G75*
G02*
X52000000Y-47250000I0J750000D01*
G01*
X52000000Y-45750000D01*
G75*
G02*
X52750000Y-45000000I750000J0D01*
G01*
X57250000Y-45000000D01*
G75*
G02*
X58000000Y-45750000I0J-750000D01*
G01*
X58000000Y-47250000D01*
G75*
G02*
X57250000Y-48000000I-750000J0D01*
G01*
G37*
%TD.AperFunction*%
%TD*%
D10*
%TO.P,J4,4*%
%TO.N,Net-(J1-Pad2-)*%
X100580000Y-90800000D03*
%TO.P,J4,3*%
%TO.N,Net-(J1-Pad2+)*%
X96620000Y-90800000D03*
%TO.P,J4,2*%
%TO.N,Net-(J1-Pad1-)*%
X92660000Y-90800000D03*
%TO.P,J4,1*%
%TO.N,Net-(J1-Pad1+)*%
%TA.AperFunction,ComponentPad*%
G36*
G01*
X87350000Y-91899999D02*
X87350000Y-89700001D01*
G75*
G02*
X87600001Y-89450000I250001J0D01*
G01*
X89799999Y-89450000D01*
G75*
G02*
X90050000Y-89700001I0J-250001D01*
G01*
X90050000Y-91899999D01*
G75*
G02*
X89799999Y-92150000I-250001J0D01*
G01*
X87600001Y-92150000D01*
G75*
G02*
X87350000Y-91899999I0J250001D01*
G01*
G37*
%TD.AperFunction*%
%TD*%
D11*
%TO.P,J3,3*%
%TO.N,Net-(J1-Pad2+)*%
X65370000Y-96200000D03*
%TO.P,J3,4*%
%TO.N,Net-(J1-Pad2-)*%
X71720000Y-96200000D03*
%TO.P,J3,1*%
%TO.N,Net-(J1-Pad1+)*%
%TA.AperFunction,ComponentPad*%
G36*
G01*
X51630000Y-97750001D02*
X51630000Y-94649999D01*
G75*
G02*
X51879999Y-94400000I249999J0D01*
G01*
X53460001Y-94400000D01*
G75*
G02*
X53710000Y-94649999I0J-249999D01*
G01*
X53710000Y-97750001D01*
G75*
G02*
X53460001Y-98000000I-249999J0D01*
G01*
X51879999Y-98000000D01*
G75*
G02*
X51630000Y-97750001I0J249999D01*
G01*
G37*
%TD.AperFunction*%
%TO.P,J3,2*%
%TO.N,Net-(J1-Pad1-)*%
X59020000Y-96200000D03*
%TD*%
D12*
%TO.N,Net-(J1-Pad2+)*%
G36*
X57671830Y-52147164D02*
G01*
X57835042Y-52204274D01*
X57981454Y-52296271D01*
X58103729Y-52418546D01*
X58195726Y-52564958D01*
X58252836Y-52728170D01*
X58296364Y-53114489D01*
X58302692Y-53142214D01*
X58369255Y-53332440D01*
X58381594Y-53358063D01*
X58488818Y-53528709D01*
X58506549Y-53550944D01*
X58649056Y-53693451D01*
X58671291Y-53711182D01*
X58841937Y-53818406D01*
X58867560Y-53830745D01*
X59057786Y-53897308D01*
X59085511Y-53903636D01*
X59285780Y-53926201D01*
X59300000Y-53927000D01*
X90600000Y-53927000D01*
X90614220Y-53926201D01*
X90814489Y-53903636D01*
X90842214Y-53897308D01*
X91032440Y-53830745D01*
X91058063Y-53818406D01*
X91228709Y-53711182D01*
X91250944Y-53693451D01*
X91393451Y-53550944D01*
X91411182Y-53528709D01*
X91518406Y-53358063D01*
X91530745Y-53332440D01*
X91597308Y-53142214D01*
X91603636Y-53114489D01*
X91647164Y-52728170D01*
X91704274Y-52564958D01*
X91796271Y-52418546D01*
X91918546Y-52296271D01*
X92064958Y-52204274D01*
X92228170Y-52147164D01*
X92407129Y-52127000D01*
X97492871Y-52127000D01*
X97671830Y-52147164D01*
X97835042Y-52204274D01*
X97981454Y-52296271D01*
X98103729Y-52418546D01*
X98195726Y-52564958D01*
X98252836Y-52728170D01*
X98273000Y-52907129D01*
X98273000Y-91592871D01*
X98252836Y-91771830D01*
X98195726Y-91935042D01*
X98103729Y-92081454D01*
X97981454Y-92203729D01*
X97835042Y-92295726D01*
X97671830Y-92352836D01*
X97492871Y-92373000D01*
X95807129Y-92373000D01*
X95628170Y-92352836D01*
X95464958Y-92295726D01*
X95318546Y-92203729D01*
X95196271Y-92081454D01*
X95104274Y-91935042D01*
X95047164Y-91771830D01*
X95027000Y-91592871D01*
X95027000Y-88300000D01*
X95026201Y-88285780D01*
X95003636Y-88085511D01*
X94997308Y-88057786D01*
X94930745Y-87867560D01*
X94918406Y-87841937D01*
X94811182Y-87671291D01*
X94793451Y-87649056D01*
X94650944Y-87506549D01*
X94628709Y-87488818D01*
X94458063Y-87381594D01*
X94432440Y-87369255D01*
X94242214Y-87302692D01*
X94214489Y-87296364D01*
X94014220Y-87273799D01*
X94000000Y-87273000D01*
X71172792Y-87273000D01*
X71160344Y-87273612D01*
X70984763Y-87290905D01*
X70960345Y-87295762D01*
X70791511Y-87346977D01*
X70768510Y-87356504D01*
X70612912Y-87439673D01*
X70592211Y-87453505D01*
X70455828Y-87565432D01*
X70446593Y-87573801D01*
X67973801Y-90046593D01*
X67965432Y-90055828D01*
X67853505Y-90192211D01*
X67839673Y-90212912D01*
X67756504Y-90368510D01*
X67746977Y-90391511D01*
X67695762Y-90560345D01*
X67690905Y-90584763D01*
X67673612Y-90760344D01*
X67673000Y-90772792D01*
X67673000Y-98092871D01*
X67652836Y-98271830D01*
X67595726Y-98435042D01*
X67503729Y-98581454D01*
X67381454Y-98703729D01*
X67235042Y-98795726D01*
X67071830Y-98852836D01*
X66892871Y-98873000D01*
X63807129Y-98873000D01*
X63628170Y-98852836D01*
X63464958Y-98795726D01*
X63318546Y-98703729D01*
X63196271Y-98581454D01*
X63104274Y-98435042D01*
X63047164Y-98271830D01*
X63027000Y-98092871D01*
X63027000Y-93872792D01*
X63026388Y-93860344D01*
X63009095Y-93684763D01*
X63004238Y-93660345D01*
X62953023Y-93491511D01*
X62943496Y-93468510D01*
X62860327Y-93312912D01*
X62846495Y-93292211D01*
X62734568Y-93155828D01*
X62726199Y-93146593D01*
X51957813Y-82378207D01*
X51857784Y-82256322D01*
X51786408Y-82122786D01*
X51742455Y-81977893D01*
X51727000Y-81820974D01*
X51727000Y-52907129D01*
X51747164Y-52728170D01*
X51804274Y-52564958D01*
X51896271Y-52418546D01*
X52018546Y-52296271D01*
X52164958Y-52204274D01*
X52328170Y-52147164D01*
X52507129Y-52127000D01*
X57492871Y-52127000D01*
X57671830Y-52147164D01*
G37*
X57671830Y-52147164D02*
X57835042Y-52204274D01*
X57981454Y-52296271D01*
X58103729Y-52418546D01*
X58195726Y-52564958D01*
X58252836Y-52728170D01*
X58296364Y-53114489D01*
X58302692Y-53142214D01*
X58369255Y-53332440D01*
X58381594Y-53358063D01*
X58488818Y-53528709D01*
X58506549Y-53550944D01*
X58649056Y-53693451D01*
X58671291Y-53711182D01*
X58841937Y-53818406D01*
X58867560Y-53830745D01*
X59057786Y-53897308D01*
X59085511Y-53903636D01*
X59285780Y-53926201D01*
X59300000Y-53927000D01*
X90600000Y-53927000D01*
X90614220Y-53926201D01*
X90814489Y-53903636D01*
X90842214Y-53897308D01*
X91032440Y-53830745D01*
X91058063Y-53818406D01*
X91228709Y-53711182D01*
X91250944Y-53693451D01*
X91393451Y-53550944D01*
X91411182Y-53528709D01*
X91518406Y-53358063D01*
X91530745Y-53332440D01*
X91597308Y-53142214D01*
X91603636Y-53114489D01*
X91647164Y-52728170D01*
X91704274Y-52564958D01*
X91796271Y-52418546D01*
X91918546Y-52296271D01*
X92064958Y-52204274D01*
X92228170Y-52147164D01*
X92407129Y-52127000D01*
X97492871Y-52127000D01*
X97671830Y-52147164D01*
X97835042Y-52204274D01*
X97981454Y-52296271D01*
X98103729Y-52418546D01*
X98195726Y-52564958D01*
X98252836Y-52728170D01*
X98273000Y-52907129D01*
X98273000Y-91592871D01*
X98252836Y-91771830D01*
X98195726Y-91935042D01*
X98103729Y-92081454D01*
X97981454Y-92203729D01*
X97835042Y-92295726D01*
X97671830Y-92352836D01*
X97492871Y-92373000D01*
X95807129Y-92373000D01*
X95628170Y-92352836D01*
X95464958Y-92295726D01*
X95318546Y-92203729D01*
X95196271Y-92081454D01*
X95104274Y-91935042D01*
X95047164Y-91771830D01*
X95027000Y-91592871D01*
X95027000Y-88300000D01*
X95026201Y-88285780D01*
X95003636Y-88085511D01*
X94997308Y-88057786D01*
X94930745Y-87867560D01*
X94918406Y-87841937D01*
X94811182Y-87671291D01*
X94793451Y-87649056D01*
X94650944Y-87506549D01*
X94628709Y-87488818D01*
X94458063Y-87381594D01*
X94432440Y-87369255D01*
X94242214Y-87302692D01*
X94214489Y-87296364D01*
X94014220Y-87273799D01*
X94000000Y-87273000D01*
X71172792Y-87273000D01*
X71160344Y-87273612D01*
X70984763Y-87290905D01*
X70960345Y-87295762D01*
X70791511Y-87346977D01*
X70768510Y-87356504D01*
X70612912Y-87439673D01*
X70592211Y-87453505D01*
X70455828Y-87565432D01*
X70446593Y-87573801D01*
X67973801Y-90046593D01*
X67965432Y-90055828D01*
X67853505Y-90192211D01*
X67839673Y-90212912D01*
X67756504Y-90368510D01*
X67746977Y-90391511D01*
X67695762Y-90560345D01*
X67690905Y-90584763D01*
X67673612Y-90760344D01*
X67673000Y-90772792D01*
X67673000Y-98092871D01*
X67652836Y-98271830D01*
X67595726Y-98435042D01*
X67503729Y-98581454D01*
X67381454Y-98703729D01*
X67235042Y-98795726D01*
X67071830Y-98852836D01*
X66892871Y-98873000D01*
X63807129Y-98873000D01*
X63628170Y-98852836D01*
X63464958Y-98795726D01*
X63318546Y-98703729D01*
X63196271Y-98581454D01*
X63104274Y-98435042D01*
X63047164Y-98271830D01*
X63027000Y-98092871D01*
X63027000Y-93872792D01*
X63026388Y-93860344D01*
X63009095Y-93684763D01*
X63004238Y-93660345D01*
X62953023Y-93491511D01*
X62943496Y-93468510D01*
X62860327Y-93312912D01*
X62846495Y-93292211D01*
X62734568Y-93155828D01*
X62726199Y-93146593D01*
X51957813Y-82378207D01*
X51857784Y-82256322D01*
X51786408Y-82122786D01*
X51742455Y-81977893D01*
X51727000Y-81820974D01*
X51727000Y-52907129D01*
X51747164Y-52728170D01*
X51804274Y-52564958D01*
X51896271Y-52418546D01*
X52018546Y-52296271D01*
X52164958Y-52204274D01*
X52328170Y-52147164D01*
X52507129Y-52127000D01*
X57492871Y-52127000D01*
X57671830Y-52147164D01*
%TO.N,Net-(J1-Pad1+)*%
G36*
X124081454Y-25796271D02*
G01*
X124203729Y-25918546D01*
X124290000Y-26055845D01*
X124290001Y-103944153D01*
X124203729Y-104081454D01*
X124081454Y-104203729D01*
X123944155Y-104290000D01*
X87555845Y-104290000D01*
X87418546Y-104203729D01*
X87296271Y-104081454D01*
X87204274Y-103935042D01*
X87147164Y-103771830D01*
X87127000Y-103592871D01*
X87127000Y-97207909D01*
X117034350Y-97207909D01*
X117034350Y-97792091D01*
X117148318Y-98365048D01*
X117371875Y-98904762D01*
X117696429Y-99390492D01*
X118109508Y-99803571D01*
X118595238Y-100128125D01*
X119134952Y-100351682D01*
X119707909Y-100465650D01*
X120292091Y-100465650D01*
X120865048Y-100351682D01*
X121404762Y-100128125D01*
X121890492Y-99803571D01*
X122303571Y-99390492D01*
X122628125Y-98904762D01*
X122851682Y-98365048D01*
X122965650Y-97792091D01*
X122965650Y-97207909D01*
X122851682Y-96634952D01*
X122628125Y-96095238D01*
X122303571Y-95609508D01*
X121890492Y-95196429D01*
X121404762Y-94871875D01*
X120865048Y-94648318D01*
X120292091Y-94534350D01*
X119707909Y-94534350D01*
X119134952Y-94648318D01*
X118595238Y-94871875D01*
X118109508Y-95196429D01*
X117696429Y-95609508D01*
X117371875Y-96095238D01*
X117148318Y-96634952D01*
X117034350Y-97207909D01*
X87127000Y-97207909D01*
X87127000Y-89907129D01*
X87147164Y-89728170D01*
X87204274Y-89564958D01*
X87296271Y-89418546D01*
X87418546Y-89296271D01*
X87564958Y-89204274D01*
X87728170Y-89147164D01*
X87907129Y-89127000D01*
X89492871Y-89127000D01*
X89671830Y-89147164D01*
X89835042Y-89204274D01*
X89981454Y-89296271D01*
X90103729Y-89418546D01*
X90195726Y-89564958D01*
X90252836Y-89728170D01*
X90273000Y-89907129D01*
X90273000Y-92900000D01*
X90273799Y-92914220D01*
X90296364Y-93114489D01*
X90302692Y-93142214D01*
X90369255Y-93332440D01*
X90381594Y-93358063D01*
X90488818Y-93528709D01*
X90506549Y-93550944D01*
X90649056Y-93693451D01*
X90671291Y-93711182D01*
X90841937Y-93818406D01*
X90867560Y-93830745D01*
X91057786Y-93897308D01*
X91085511Y-93903636D01*
X91285780Y-93926201D01*
X91300000Y-93927000D01*
X102627208Y-93927000D01*
X102639656Y-93926388D01*
X102815237Y-93909095D01*
X102839655Y-93904238D01*
X103008489Y-93853023D01*
X103031490Y-93843496D01*
X103187088Y-93760327D01*
X103207789Y-93746495D01*
X103344172Y-93634568D01*
X103353407Y-93626199D01*
X105826199Y-91153407D01*
X105834568Y-91144172D01*
X105946495Y-91007789D01*
X105960327Y-90987088D01*
X106043496Y-90831490D01*
X106053023Y-90808489D01*
X106104238Y-90639655D01*
X106109095Y-90615237D01*
X106126388Y-90439656D01*
X106127000Y-90427208D01*
X106127000Y-49872792D01*
X106126388Y-49860344D01*
X106109095Y-49684763D01*
X106104238Y-49660345D01*
X106053023Y-49491511D01*
X106043496Y-49468510D01*
X105960327Y-49312912D01*
X105946495Y-49292211D01*
X105834568Y-49155828D01*
X105826199Y-49146593D01*
X103353407Y-46673801D01*
X103344172Y-46665432D01*
X103207789Y-46553505D01*
X103187088Y-46539673D01*
X103031490Y-46456504D01*
X103008489Y-46446977D01*
X102839655Y-46395762D01*
X102815237Y-46390905D01*
X102639656Y-46373612D01*
X102627208Y-46373000D01*
X99300000Y-46373000D01*
X99285780Y-46373799D01*
X99085511Y-46396364D01*
X99057786Y-46402692D01*
X98867560Y-46469255D01*
X98841937Y-46481594D01*
X98671291Y-46588818D01*
X98649056Y-46606549D01*
X98506549Y-46749056D01*
X98488818Y-46771291D01*
X98381594Y-46941937D01*
X98369255Y-46967560D01*
X98302692Y-47157786D01*
X98296364Y-47185511D01*
X98273799Y-47385780D01*
X98273000Y-47400000D01*
X98273000Y-47492871D01*
X98252836Y-47671830D01*
X98195726Y-47835042D01*
X98103729Y-47981454D01*
X97981454Y-48103729D01*
X97835042Y-48195726D01*
X97671830Y-48252836D01*
X97492871Y-48273000D01*
X92507129Y-48273000D01*
X92328170Y-48252836D01*
X92164958Y-48195726D01*
X92018546Y-48103729D01*
X91896271Y-47981454D01*
X91804274Y-47835042D01*
X91747164Y-47671830D01*
X91727000Y-47492871D01*
X91727000Y-47400000D01*
X91726201Y-47385780D01*
X91703636Y-47185511D01*
X91697308Y-47157786D01*
X91630745Y-46967560D01*
X91618406Y-46941937D01*
X91511182Y-46771291D01*
X91493451Y-46749056D01*
X91350944Y-46606549D01*
X91328709Y-46588818D01*
X91158063Y-46481594D01*
X91132440Y-46469255D01*
X90942214Y-46402692D01*
X90914489Y-46396364D01*
X90714220Y-46373799D01*
X90700000Y-46373000D01*
X59300000Y-46373000D01*
X59285780Y-46373799D01*
X59085511Y-46396364D01*
X59057786Y-46402692D01*
X58867560Y-46469255D01*
X58841937Y-46481594D01*
X58671291Y-46588818D01*
X58649056Y-46606549D01*
X58506549Y-46749056D01*
X58488818Y-46771291D01*
X58381594Y-46941937D01*
X58369255Y-46967560D01*
X58302692Y-47157786D01*
X58296364Y-47185511D01*
X58273799Y-47385780D01*
X58273000Y-47400000D01*
X58273000Y-47492871D01*
X58252836Y-47671830D01*
X58195726Y-47835042D01*
X58103729Y-47981454D01*
X57981454Y-48103729D01*
X57835042Y-48195726D01*
X57671830Y-48252836D01*
X57492871Y-48273000D01*
X52507129Y-48273000D01*
X52328170Y-48252836D01*
X52164958Y-48195726D01*
X52018546Y-48103729D01*
X51896271Y-47981454D01*
X51804274Y-47835042D01*
X51747164Y-47671830D01*
X51727000Y-47492871D01*
X51727000Y-47400000D01*
X51726201Y-47385780D01*
X51703636Y-47185511D01*
X51697308Y-47157786D01*
X51630745Y-46967560D01*
X51618406Y-46941937D01*
X51511182Y-46771291D01*
X51493451Y-46749056D01*
X51350944Y-46606549D01*
X51328709Y-46588818D01*
X51158063Y-46481594D01*
X51132440Y-46469255D01*
X50942214Y-46402692D01*
X50914489Y-46396364D01*
X50714220Y-46373799D01*
X50700000Y-46373000D01*
X47372792Y-46373000D01*
X47360344Y-46373612D01*
X47184763Y-46390905D01*
X47160345Y-46395762D01*
X46991511Y-46446977D01*
X46968510Y-46456504D01*
X46812912Y-46539673D01*
X46792211Y-46553505D01*
X46655828Y-46665432D01*
X46646593Y-46673801D01*
X44173801Y-49146593D01*
X44165432Y-49155828D01*
X44053505Y-49292211D01*
X44039673Y-49312912D01*
X43956504Y-49468510D01*
X43946977Y-49491511D01*
X43895762Y-49660345D01*
X43890905Y-49684763D01*
X43873612Y-49860344D01*
X43873000Y-49872792D01*
X43873000Y-81727208D01*
X43873612Y-81739656D01*
X43890905Y-81915237D01*
X43895762Y-81939655D01*
X43946977Y-82108489D01*
X43956504Y-82131490D01*
X44039673Y-82287088D01*
X44053505Y-82307789D01*
X44165432Y-82444172D01*
X44173801Y-82453407D01*
X55042187Y-93321793D01*
X55142216Y-93443678D01*
X55213592Y-93577214D01*
X55257545Y-93722107D01*
X55273000Y-93879026D01*
X55273000Y-103592871D01*
X55252836Y-103771830D01*
X55195726Y-103935042D01*
X55103729Y-104081454D01*
X54981454Y-104203729D01*
X54844155Y-104290000D01*
X26055845Y-104290000D01*
X25918546Y-104203729D01*
X25796271Y-104081454D01*
X25710000Y-103944155D01*
X25710000Y-97207909D01*
X27034350Y-97207909D01*
X27034350Y-97792091D01*
X27148318Y-98365048D01*
X27371875Y-98904762D01*
X27696429Y-99390492D01*
X28109508Y-99803571D01*
X28595238Y-100128125D01*
X29134952Y-100351682D01*
X29707909Y-100465650D01*
X30292091Y-100465650D01*
X30865048Y-100351682D01*
X31404762Y-100128125D01*
X31890492Y-99803571D01*
X32303571Y-99390492D01*
X32628125Y-98904762D01*
X32851682Y-98365048D01*
X32965650Y-97792091D01*
X32965650Y-97207909D01*
X32851682Y-96634952D01*
X32628125Y-96095238D01*
X32303571Y-95609508D01*
X31890492Y-95196429D01*
X31404762Y-94871875D01*
X30865048Y-94648318D01*
X30292091Y-94534350D01*
X29707909Y-94534350D01*
X29134952Y-94648318D01*
X28595238Y-94871875D01*
X28109508Y-95196429D01*
X27696429Y-95609508D01*
X27371875Y-96095238D01*
X27148318Y-96634952D01*
X27034350Y-97207909D01*
X25710000Y-97207909D01*
X25710000Y-32207909D01*
X27034350Y-32207909D01*
X27034350Y-32792091D01*
X27148318Y-33365048D01*
X27371875Y-33904762D01*
X27696429Y-34390492D01*
X28109508Y-34803571D01*
X28595238Y-35128125D01*
X29134952Y-35351682D01*
X29707909Y-35465650D01*
X30292091Y-35465650D01*
X30865048Y-35351682D01*
X31404762Y-35128125D01*
X31890492Y-34803571D01*
X32303571Y-34390492D01*
X32628125Y-33904762D01*
X32851682Y-33365048D01*
X32965650Y-32792091D01*
X32965650Y-32207909D01*
X117034350Y-32207909D01*
X117034350Y-32792091D01*
X117148318Y-33365048D01*
X117371875Y-33904762D01*
X117696429Y-34390492D01*
X118109508Y-34803571D01*
X118595238Y-35128125D01*
X119134952Y-35351682D01*
X119707909Y-35465650D01*
X120292091Y-35465650D01*
X120865048Y-35351682D01*
X121404762Y-35128125D01*
X121890492Y-34803571D01*
X122303571Y-34390492D01*
X122628125Y-33904762D01*
X122851682Y-33365048D01*
X122965650Y-32792091D01*
X122965650Y-32207909D01*
X122851682Y-31634952D01*
X122628125Y-31095238D01*
X122303571Y-30609508D01*
X121890492Y-30196429D01*
X121404762Y-29871875D01*
X120865048Y-29648318D01*
X120292091Y-29534350D01*
X119707909Y-29534350D01*
X119134952Y-29648318D01*
X118595238Y-29871875D01*
X118109508Y-30196429D01*
X117696429Y-30609508D01*
X117371875Y-31095238D01*
X117148318Y-31634952D01*
X117034350Y-32207909D01*
X32965650Y-32207909D01*
X32851682Y-31634952D01*
X32628125Y-31095238D01*
X32303571Y-30609508D01*
X31890492Y-30196429D01*
X31404762Y-29871875D01*
X30865048Y-29648318D01*
X30292091Y-29534350D01*
X29707909Y-29534350D01*
X29134952Y-29648318D01*
X28595238Y-29871875D01*
X28109508Y-30196429D01*
X27696429Y-30609508D01*
X27371875Y-31095238D01*
X27148318Y-31634952D01*
X27034350Y-32207909D01*
X25710000Y-32207909D01*
X25710000Y-26055845D01*
X25796271Y-25918546D01*
X25918546Y-25796271D01*
X26055845Y-25710000D01*
X123944155Y-25710000D01*
X124081454Y-25796271D01*
G37*
X124081454Y-25796271D02*
X124203729Y-25918546D01*
X124290000Y-26055845D01*
X124290001Y-103944153D01*
X124203729Y-104081454D01*
X124081454Y-104203729D01*
X123944155Y-104290000D01*
X87555845Y-104290000D01*
X87418546Y-104203729D01*
X87296271Y-104081454D01*
X87204274Y-103935042D01*
X87147164Y-103771830D01*
X87127000Y-103592871D01*
X87127000Y-97207909D01*
X117034350Y-97207909D01*
X117034350Y-97792091D01*
X117148318Y-98365048D01*
X117371875Y-98904762D01*
X117696429Y-99390492D01*
X118109508Y-99803571D01*
X118595238Y-100128125D01*
X119134952Y-100351682D01*
X119707909Y-100465650D01*
X120292091Y-100465650D01*
X120865048Y-100351682D01*
X121404762Y-100128125D01*
X121890492Y-99803571D01*
X122303571Y-99390492D01*
X122628125Y-98904762D01*
X122851682Y-98365048D01*
X122965650Y-97792091D01*
X122965650Y-97207909D01*
X122851682Y-96634952D01*
X122628125Y-96095238D01*
X122303571Y-95609508D01*
X121890492Y-95196429D01*
X121404762Y-94871875D01*
X120865048Y-94648318D01*
X120292091Y-94534350D01*
X119707909Y-94534350D01*
X119134952Y-94648318D01*
X118595238Y-94871875D01*
X118109508Y-95196429D01*
X117696429Y-95609508D01*
X117371875Y-96095238D01*
X117148318Y-96634952D01*
X117034350Y-97207909D01*
X87127000Y-97207909D01*
X87127000Y-89907129D01*
X87147164Y-89728170D01*
X87204274Y-89564958D01*
X87296271Y-89418546D01*
X87418546Y-89296271D01*
X87564958Y-89204274D01*
X87728170Y-89147164D01*
X87907129Y-89127000D01*
X89492871Y-89127000D01*
X89671830Y-89147164D01*
X89835042Y-89204274D01*
X89981454Y-89296271D01*
X90103729Y-89418546D01*
X90195726Y-89564958D01*
X90252836Y-89728170D01*
X90273000Y-89907129D01*
X90273000Y-92900000D01*
X90273799Y-92914220D01*
X90296364Y-93114489D01*
X90302692Y-93142214D01*
X90369255Y-93332440D01*
X90381594Y-93358063D01*
X90488818Y-93528709D01*
X90506549Y-93550944D01*
X90649056Y-93693451D01*
X90671291Y-93711182D01*
X90841937Y-93818406D01*
X90867560Y-93830745D01*
X91057786Y-93897308D01*
X91085511Y-93903636D01*
X91285780Y-93926201D01*
X91300000Y-93927000D01*
X102627208Y-93927000D01*
X102639656Y-93926388D01*
X102815237Y-93909095D01*
X102839655Y-93904238D01*
X103008489Y-93853023D01*
X103031490Y-93843496D01*
X103187088Y-93760327D01*
X103207789Y-93746495D01*
X103344172Y-93634568D01*
X103353407Y-93626199D01*
X105826199Y-91153407D01*
X105834568Y-91144172D01*
X105946495Y-91007789D01*
X105960327Y-90987088D01*
X106043496Y-90831490D01*
X106053023Y-90808489D01*
X106104238Y-90639655D01*
X106109095Y-90615237D01*
X106126388Y-90439656D01*
X106127000Y-90427208D01*
X106127000Y-49872792D01*
X106126388Y-49860344D01*
X106109095Y-49684763D01*
X106104238Y-49660345D01*
X106053023Y-49491511D01*
X106043496Y-49468510D01*
X105960327Y-49312912D01*
X105946495Y-49292211D01*
X105834568Y-49155828D01*
X105826199Y-49146593D01*
X103353407Y-46673801D01*
X103344172Y-46665432D01*
X103207789Y-46553505D01*
X103187088Y-46539673D01*
X103031490Y-46456504D01*
X103008489Y-46446977D01*
X102839655Y-46395762D01*
X102815237Y-46390905D01*
X102639656Y-46373612D01*
X102627208Y-46373000D01*
X99300000Y-46373000D01*
X99285780Y-46373799D01*
X99085511Y-46396364D01*
X99057786Y-46402692D01*
X98867560Y-46469255D01*
X98841937Y-46481594D01*
X98671291Y-46588818D01*
X98649056Y-46606549D01*
X98506549Y-46749056D01*
X98488818Y-46771291D01*
X98381594Y-46941937D01*
X98369255Y-46967560D01*
X98302692Y-47157786D01*
X98296364Y-47185511D01*
X98273799Y-47385780D01*
X98273000Y-47400000D01*
X98273000Y-47492871D01*
X98252836Y-47671830D01*
X98195726Y-47835042D01*
X98103729Y-47981454D01*
X97981454Y-48103729D01*
X97835042Y-48195726D01*
X97671830Y-48252836D01*
X97492871Y-48273000D01*
X92507129Y-48273000D01*
X92328170Y-48252836D01*
X92164958Y-48195726D01*
X92018546Y-48103729D01*
X91896271Y-47981454D01*
X91804274Y-47835042D01*
X91747164Y-47671830D01*
X91727000Y-47492871D01*
X91727000Y-47400000D01*
X91726201Y-47385780D01*
X91703636Y-47185511D01*
X91697308Y-47157786D01*
X91630745Y-46967560D01*
X91618406Y-46941937D01*
X91511182Y-46771291D01*
X91493451Y-46749056D01*
X91350944Y-46606549D01*
X91328709Y-46588818D01*
X91158063Y-46481594D01*
X91132440Y-46469255D01*
X90942214Y-46402692D01*
X90914489Y-46396364D01*
X90714220Y-46373799D01*
X90700000Y-46373000D01*
X59300000Y-46373000D01*
X59285780Y-46373799D01*
X59085511Y-46396364D01*
X59057786Y-46402692D01*
X58867560Y-46469255D01*
X58841937Y-46481594D01*
X58671291Y-46588818D01*
X58649056Y-46606549D01*
X58506549Y-46749056D01*
X58488818Y-46771291D01*
X58381594Y-46941937D01*
X58369255Y-46967560D01*
X58302692Y-47157786D01*
X58296364Y-47185511D01*
X58273799Y-47385780D01*
X58273000Y-47400000D01*
X58273000Y-47492871D01*
X58252836Y-47671830D01*
X58195726Y-47835042D01*
X58103729Y-47981454D01*
X57981454Y-48103729D01*
X57835042Y-48195726D01*
X57671830Y-48252836D01*
X57492871Y-48273000D01*
X52507129Y-48273000D01*
X52328170Y-48252836D01*
X52164958Y-48195726D01*
X52018546Y-48103729D01*
X51896271Y-47981454D01*
X51804274Y-47835042D01*
X51747164Y-47671830D01*
X51727000Y-47492871D01*
X51727000Y-47400000D01*
X51726201Y-47385780D01*
X51703636Y-47185511D01*
X51697308Y-47157786D01*
X51630745Y-46967560D01*
X51618406Y-46941937D01*
X51511182Y-46771291D01*
X51493451Y-46749056D01*
X51350944Y-46606549D01*
X51328709Y-46588818D01*
X51158063Y-46481594D01*
X51132440Y-46469255D01*
X50942214Y-46402692D01*
X50914489Y-46396364D01*
X50714220Y-46373799D01*
X50700000Y-46373000D01*
X47372792Y-46373000D01*
X47360344Y-46373612D01*
X47184763Y-46390905D01*
X47160345Y-46395762D01*
X46991511Y-46446977D01*
X46968510Y-46456504D01*
X46812912Y-46539673D01*
X46792211Y-46553505D01*
X46655828Y-46665432D01*
X46646593Y-46673801D01*
X44173801Y-49146593D01*
X44165432Y-49155828D01*
X44053505Y-49292211D01*
X44039673Y-49312912D01*
X43956504Y-49468510D01*
X43946977Y-49491511D01*
X43895762Y-49660345D01*
X43890905Y-49684763D01*
X43873612Y-49860344D01*
X43873000Y-49872792D01*
X43873000Y-81727208D01*
X43873612Y-81739656D01*
X43890905Y-81915237D01*
X43895762Y-81939655D01*
X43946977Y-82108489D01*
X43956504Y-82131490D01*
X44039673Y-82287088D01*
X44053505Y-82307789D01*
X44165432Y-82444172D01*
X44173801Y-82453407D01*
X55042187Y-93321793D01*
X55142216Y-93443678D01*
X55213592Y-93577214D01*
X55257545Y-93722107D01*
X55273000Y-93879026D01*
X55273000Y-103592871D01*
X55252836Y-103771830D01*
X55195726Y-103935042D01*
X55103729Y-104081454D01*
X54981454Y-104203729D01*
X54844155Y-104290000D01*
X26055845Y-104290000D01*
X25918546Y-104203729D01*
X25796271Y-104081454D01*
X25710000Y-103944155D01*
X25710000Y-97207909D01*
X27034350Y-97207909D01*
X27034350Y-97792091D01*
X27148318Y-98365048D01*
X27371875Y-98904762D01*
X27696429Y-99390492D01*
X28109508Y-99803571D01*
X28595238Y-100128125D01*
X29134952Y-100351682D01*
X29707909Y-100465650D01*
X30292091Y-100465650D01*
X30865048Y-100351682D01*
X31404762Y-100128125D01*
X31890492Y-99803571D01*
X32303571Y-99390492D01*
X32628125Y-98904762D01*
X32851682Y-98365048D01*
X32965650Y-97792091D01*
X32965650Y-97207909D01*
X32851682Y-96634952D01*
X32628125Y-96095238D01*
X32303571Y-95609508D01*
X31890492Y-95196429D01*
X31404762Y-94871875D01*
X30865048Y-94648318D01*
X30292091Y-94534350D01*
X29707909Y-94534350D01*
X29134952Y-94648318D01*
X28595238Y-94871875D01*
X28109508Y-95196429D01*
X27696429Y-95609508D01*
X27371875Y-96095238D01*
X27148318Y-96634952D01*
X27034350Y-97207909D01*
X25710000Y-97207909D01*
X25710000Y-32207909D01*
X27034350Y-32207909D01*
X27034350Y-32792091D01*
X27148318Y-33365048D01*
X27371875Y-33904762D01*
X27696429Y-34390492D01*
X28109508Y-34803571D01*
X28595238Y-35128125D01*
X29134952Y-35351682D01*
X29707909Y-35465650D01*
X30292091Y-35465650D01*
X30865048Y-35351682D01*
X31404762Y-35128125D01*
X31890492Y-34803571D01*
X32303571Y-34390492D01*
X32628125Y-33904762D01*
X32851682Y-33365048D01*
X32965650Y-32792091D01*
X32965650Y-32207909D01*
X117034350Y-32207909D01*
X117034350Y-32792091D01*
X117148318Y-33365048D01*
X117371875Y-33904762D01*
X117696429Y-34390492D01*
X118109508Y-34803571D01*
X118595238Y-35128125D01*
X119134952Y-35351682D01*
X119707909Y-35465650D01*
X120292091Y-35465650D01*
X120865048Y-35351682D01*
X121404762Y-35128125D01*
X121890492Y-34803571D01*
X122303571Y-34390492D01*
X122628125Y-33904762D01*
X122851682Y-33365048D01*
X122965650Y-32792091D01*
X122965650Y-32207909D01*
X122851682Y-31634952D01*
X122628125Y-31095238D01*
X122303571Y-30609508D01*
X121890492Y-30196429D01*
X121404762Y-29871875D01*
X120865048Y-29648318D01*
X120292091Y-29534350D01*
X119707909Y-29534350D01*
X119134952Y-29648318D01*
X118595238Y-29871875D01*
X118109508Y-30196429D01*
X117696429Y-30609508D01*
X117371875Y-31095238D01*
X117148318Y-31634952D01*
X117034350Y-32207909D01*
X32965650Y-32207909D01*
X32851682Y-31634952D01*
X32628125Y-31095238D01*
X32303571Y-30609508D01*
X31890492Y-30196429D01*
X31404762Y-29871875D01*
X30865048Y-29648318D01*
X30292091Y-29534350D01*
X29707909Y-29534350D01*
X29134952Y-29648318D01*
X28595238Y-29871875D01*
X28109508Y-30196429D01*
X27696429Y-30609508D01*
X27371875Y-31095238D01*
X27148318Y-31634952D01*
X27034350Y-32207909D01*
X25710000Y-32207909D01*
X25710000Y-26055845D01*
X25796271Y-25918546D01*
X25918546Y-25796271D01*
X26055845Y-25710000D01*
X123944155Y-25710000D01*
X124081454Y-25796271D01*
%TD*%
M02*
