%TF.GenerationSoftware,KiCad,Pcbnew,5.1.8-db9833491~88~ubuntu18.04.1*%
%TF.CreationDate,2020-12-18T15:57:36+01:00*%
%TF.ProjectId,Ingressi,496e6772-6573-4736-992e-6b696361645f,v1.0*%
%TF.SameCoordinates,Original*%
%TF.FileFunction,Soldermask,Top*%
%TF.FilePolarity,Negative*%
%FSLAX46Y46*%
G04 Gerber Fmt 4.6, Leading zero omitted, Abs format (unit mm)*
G04 Created by KiCad (PCBNEW 5.1.8-db9833491~88~ubuntu18.04.1) date 2020-12-18 15:57:36*
%MOMM*%
%LPD*%
G01*
G04 APERTURE LIST*
%ADD10O,2.080000X3.600000*%
%ADD11C,2.700000*%
G04 APERTURE END LIST*
D10*
X58960000Y-82600000D03*
X53880000Y-82600000D03*
X64040000Y-82600000D03*
G36*
G01*
X47760000Y-84150001D02*
X47760000Y-81049999D01*
G75*
G02*
X48009999Y-80800000I249999J0D01*
G01*
X49590001Y-80800000D01*
G75*
G02*
X49840000Y-81049999I0J-249999D01*
G01*
X49840000Y-84150001D01*
G75*
G02*
X49590001Y-84400000I-249999J0D01*
G01*
X48009999Y-84400000D01*
G75*
G02*
X47760000Y-84150001I0J249999D01*
G01*
G37*
G36*
G01*
X47760000Y-79150001D02*
X47760000Y-76049999D01*
G75*
G02*
X48009999Y-75800000I249999J0D01*
G01*
X49590001Y-75800000D01*
G75*
G02*
X49840000Y-76049999I0J-249999D01*
G01*
X49840000Y-79150001D01*
G75*
G02*
X49590001Y-79400000I-249999J0D01*
G01*
X48009999Y-79400000D01*
G75*
G02*
X47760000Y-79150001I0J249999D01*
G01*
G37*
X53880000Y-77600000D03*
X64040000Y-77600000D03*
X58960000Y-77600000D03*
G36*
G01*
X102164200Y-47933000D02*
X102164200Y-52433000D01*
G75*
G02*
X101414200Y-53183000I-750000J0D01*
G01*
X99914200Y-53183000D01*
G75*
G02*
X99164200Y-52433000I0J750000D01*
G01*
X99164200Y-47933000D01*
G75*
G02*
X99914200Y-47183000I750000J0D01*
G01*
X101414200Y-47183000D01*
G75*
G02*
X102164200Y-47933000I0J-750000D01*
G01*
G37*
G36*
G01*
X92750000Y-52366000D02*
X97250000Y-52366000D01*
G75*
G02*
X98000000Y-53116000I0J-750000D01*
G01*
X98000000Y-54616000D01*
G75*
G02*
X97250000Y-55366000I-750000J0D01*
G01*
X92750000Y-55366000D01*
G75*
G02*
X92000000Y-54616000I0J750000D01*
G01*
X92000000Y-53116000D01*
G75*
G02*
X92750000Y-52366000I750000J0D01*
G01*
G37*
G36*
G01*
X90861200Y-47933000D02*
X90861200Y-52433000D01*
G75*
G02*
X90111200Y-53183000I-750000J0D01*
G01*
X88611200Y-53183000D01*
G75*
G02*
X87861200Y-52433000I0J750000D01*
G01*
X87861200Y-47933000D01*
G75*
G02*
X88611200Y-47183000I750000J0D01*
G01*
X90111200Y-47183000D01*
G75*
G02*
X90861200Y-47933000I0J-750000D01*
G01*
G37*
G36*
G01*
X97250000Y-48000000D02*
X92750000Y-48000000D01*
G75*
G02*
X92000000Y-47250000I0J750000D01*
G01*
X92000000Y-45750000D01*
G75*
G02*
X92750000Y-45000000I750000J0D01*
G01*
X97250000Y-45000000D01*
G75*
G02*
X98000000Y-45750000I0J-750000D01*
G01*
X98000000Y-47250000D01*
G75*
G02*
X97250000Y-48000000I-750000J0D01*
G01*
G37*
G36*
G01*
X62164200Y-47933000D02*
X62164200Y-52433000D01*
G75*
G02*
X61414200Y-53183000I-750000J0D01*
G01*
X59914200Y-53183000D01*
G75*
G02*
X59164200Y-52433000I0J750000D01*
G01*
X59164200Y-47933000D01*
G75*
G02*
X59914200Y-47183000I750000J0D01*
G01*
X61414200Y-47183000D01*
G75*
G02*
X62164200Y-47933000I0J-750000D01*
G01*
G37*
G36*
G01*
X52750000Y-52366000D02*
X57250000Y-52366000D01*
G75*
G02*
X58000000Y-53116000I0J-750000D01*
G01*
X58000000Y-54616000D01*
G75*
G02*
X57250000Y-55366000I-750000J0D01*
G01*
X52750000Y-55366000D01*
G75*
G02*
X52000000Y-54616000I0J750000D01*
G01*
X52000000Y-53116000D01*
G75*
G02*
X52750000Y-52366000I750000J0D01*
G01*
G37*
G36*
G01*
X50861200Y-47933000D02*
X50861200Y-52433000D01*
G75*
G02*
X50111200Y-53183000I-750000J0D01*
G01*
X48611200Y-53183000D01*
G75*
G02*
X47861200Y-52433000I0J750000D01*
G01*
X47861200Y-47933000D01*
G75*
G02*
X48611200Y-47183000I750000J0D01*
G01*
X50111200Y-47183000D01*
G75*
G02*
X50861200Y-47933000I0J-750000D01*
G01*
G37*
G36*
G01*
X57250000Y-48000000D02*
X52750000Y-48000000D01*
G75*
G02*
X52000000Y-47250000I0J750000D01*
G01*
X52000000Y-45750000D01*
G75*
G02*
X52750000Y-45000000I750000J0D01*
G01*
X57250000Y-45000000D01*
G75*
G02*
X58000000Y-45750000I0J-750000D01*
G01*
X58000000Y-47250000D01*
G75*
G02*
X57250000Y-48000000I-750000J0D01*
G01*
G37*
D11*
X100580000Y-72350000D03*
X96620000Y-72350000D03*
X92660000Y-72350000D03*
G36*
G01*
X87350000Y-73449999D02*
X87350000Y-71250001D01*
G75*
G02*
X87600001Y-71000000I250001J0D01*
G01*
X89799999Y-71000000D01*
G75*
G02*
X90050000Y-71250001I0J-250001D01*
G01*
X90050000Y-73449999D01*
G75*
G02*
X89799999Y-73700000I-250001J0D01*
G01*
X87600001Y-73700000D01*
G75*
G02*
X87350000Y-73449999I0J250001D01*
G01*
G37*
M02*
