M48
INCH,TZ
T1C0.0394
T2C0.0551
T3C0.0669
%
G90
G05
T2
X19213Y-30551
X19213Y-32520
X21213Y-30551
X21213Y-32520
X23213Y-30551
X23213Y-32520
X25213Y-30551
X25213Y-32520
T3
X34921Y-29075
X36480Y-29075
X38039Y-29075
X39598Y-29075
T1
G00X35182Y-20643
M15
G01X35182Y-18871
M16
G05
G00X36516Y-18307
M15
G01X38287Y-18307
M16
G05
G00X38287Y-21207
M15
G01X36516Y-21207
M16
G05
G00X39632Y-20643
M15
G01X39632Y-18871
M16
G05
G00X19434Y-20643
M15
G01X19434Y-18871
M16
G05
G00X20768Y-18307
M15
G01X22539Y-18307
M16
G05
G00X22539Y-21207
M15
G01X20768Y-21207
M16
G05
G00X23884Y-20643
M15
G01X23884Y-18871
M16
G05
T0
M30
