%TF.GenerationSoftware,KiCad,Pcbnew,(5.1.6)-1*%
%TF.CreationDate,2020-12-17T23:04:28+01:00*%
%TF.ProjectId,Ingressi,496e6772-6573-4736-992e-6b696361645f,v1.0*%
%TF.SameCoordinates,Original*%
%TF.FileFunction,Copper,L2,Bot*%
%TF.FilePolarity,Positive*%
%FSLAX46Y46*%
G04 Gerber Fmt 4.6, Leading zero omitted, Abs format (unit mm)*
G04 Created by KiCad (PCBNEW (5.1.6)-1) date 2020-12-17 23:04:28*
%MOMM*%
%LPD*%
G01*
G04 APERTURE LIST*
%TA.AperFunction,ComponentPad*%
%ADD10O,2.080000X3.600000*%
%TD*%
%TA.AperFunction,ComponentPad*%
%ADD11C,2.700000*%
%TD*%
%TA.AperFunction,Conductor*%
%ADD12C,0.254000*%
%TD*%
G04 APERTURE END LIST*
D10*
X58960000Y-82600000D03*
X53880000Y-82600000D03*
X64040000Y-82600000D03*
%TA.AperFunction,ComponentPad*%
G36*
G01*
X47760000Y-84150001D02*
X47760000Y-81049999D01*
G75*
G02*
X48009999Y-80800000I249999J0D01*
G01*
X49590001Y-80800000D01*
G75*
G02*
X49840000Y-81049999I0J-249999D01*
G01*
X49840000Y-84150001D01*
G75*
G02*
X49590001Y-84400000I-249999J0D01*
G01*
X48009999Y-84400000D01*
G75*
G02*
X47760000Y-84150001I0J249999D01*
G01*
G37*
%TD.AperFunction*%
%TA.AperFunction,ComponentPad*%
G36*
G01*
X47760000Y-79150001D02*
X47760000Y-76049999D01*
G75*
G02*
X48009999Y-75800000I249999J0D01*
G01*
X49590001Y-75800000D01*
G75*
G02*
X49840000Y-76049999I0J-249999D01*
G01*
X49840000Y-79150001D01*
G75*
G02*
X49590001Y-79400000I-249999J0D01*
G01*
X48009999Y-79400000D01*
G75*
G02*
X47760000Y-79150001I0J249999D01*
G01*
G37*
%TD.AperFunction*%
X53880000Y-77600000D03*
X64040000Y-77600000D03*
X58960000Y-77600000D03*
%TA.AperFunction,ComponentPad*%
G36*
G01*
X102164200Y-47933000D02*
X102164200Y-52433000D01*
G75*
G02*
X101414200Y-53183000I-750000J0D01*
G01*
X99914200Y-53183000D01*
G75*
G02*
X99164200Y-52433000I0J750000D01*
G01*
X99164200Y-47933000D01*
G75*
G02*
X99914200Y-47183000I750000J0D01*
G01*
X101414200Y-47183000D01*
G75*
G02*
X102164200Y-47933000I0J-750000D01*
G01*
G37*
%TD.AperFunction*%
%TA.AperFunction,ComponentPad*%
G36*
G01*
X92750000Y-52366000D02*
X97250000Y-52366000D01*
G75*
G02*
X98000000Y-53116000I0J-750000D01*
G01*
X98000000Y-54616000D01*
G75*
G02*
X97250000Y-55366000I-750000J0D01*
G01*
X92750000Y-55366000D01*
G75*
G02*
X92000000Y-54616000I0J750000D01*
G01*
X92000000Y-53116000D01*
G75*
G02*
X92750000Y-52366000I750000J0D01*
G01*
G37*
%TD.AperFunction*%
%TA.AperFunction,ComponentPad*%
G36*
G01*
X90861200Y-47933000D02*
X90861200Y-52433000D01*
G75*
G02*
X90111200Y-53183000I-750000J0D01*
G01*
X88611200Y-53183000D01*
G75*
G02*
X87861200Y-52433000I0J750000D01*
G01*
X87861200Y-47933000D01*
G75*
G02*
X88611200Y-47183000I750000J0D01*
G01*
X90111200Y-47183000D01*
G75*
G02*
X90861200Y-47933000I0J-750000D01*
G01*
G37*
%TD.AperFunction*%
%TA.AperFunction,ComponentPad*%
G36*
G01*
X97250000Y-48000000D02*
X92750000Y-48000000D01*
G75*
G02*
X92000000Y-47250000I0J750000D01*
G01*
X92000000Y-45750000D01*
G75*
G02*
X92750000Y-45000000I750000J0D01*
G01*
X97250000Y-45000000D01*
G75*
G02*
X98000000Y-45750000I0J-750000D01*
G01*
X98000000Y-47250000D01*
G75*
G02*
X97250000Y-48000000I-750000J0D01*
G01*
G37*
%TD.AperFunction*%
%TA.AperFunction,ComponentPad*%
G36*
G01*
X62164200Y-47933000D02*
X62164200Y-52433000D01*
G75*
G02*
X61414200Y-53183000I-750000J0D01*
G01*
X59914200Y-53183000D01*
G75*
G02*
X59164200Y-52433000I0J750000D01*
G01*
X59164200Y-47933000D01*
G75*
G02*
X59914200Y-47183000I750000J0D01*
G01*
X61414200Y-47183000D01*
G75*
G02*
X62164200Y-47933000I0J-750000D01*
G01*
G37*
%TD.AperFunction*%
%TA.AperFunction,ComponentPad*%
G36*
G01*
X52750000Y-52366000D02*
X57250000Y-52366000D01*
G75*
G02*
X58000000Y-53116000I0J-750000D01*
G01*
X58000000Y-54616000D01*
G75*
G02*
X57250000Y-55366000I-750000J0D01*
G01*
X52750000Y-55366000D01*
G75*
G02*
X52000000Y-54616000I0J750000D01*
G01*
X52000000Y-53116000D01*
G75*
G02*
X52750000Y-52366000I750000J0D01*
G01*
G37*
%TD.AperFunction*%
%TA.AperFunction,ComponentPad*%
G36*
G01*
X50861200Y-47933000D02*
X50861200Y-52433000D01*
G75*
G02*
X50111200Y-53183000I-750000J0D01*
G01*
X48611200Y-53183000D01*
G75*
G02*
X47861200Y-52433000I0J750000D01*
G01*
X47861200Y-47933000D01*
G75*
G02*
X48611200Y-47183000I750000J0D01*
G01*
X50111200Y-47183000D01*
G75*
G02*
X50861200Y-47933000I0J-750000D01*
G01*
G37*
%TD.AperFunction*%
%TA.AperFunction,ComponentPad*%
G36*
G01*
X57250000Y-48000000D02*
X52750000Y-48000000D01*
G75*
G02*
X52000000Y-47250000I0J750000D01*
G01*
X52000000Y-45750000D01*
G75*
G02*
X52750000Y-45000000I750000J0D01*
G01*
X57250000Y-45000000D01*
G75*
G02*
X58000000Y-45750000I0J-750000D01*
G01*
X58000000Y-47250000D01*
G75*
G02*
X57250000Y-48000000I-750000J0D01*
G01*
G37*
%TD.AperFunction*%
D11*
X100580000Y-72350000D03*
X96620000Y-72350000D03*
X92660000Y-72350000D03*
%TA.AperFunction,ComponentPad*%
G36*
G01*
X87350000Y-73449999D02*
X87350000Y-71250001D01*
G75*
G02*
X87600001Y-71000000I250001J0D01*
G01*
X89799999Y-71000000D01*
G75*
G02*
X90050000Y-71250001I0J-250001D01*
G01*
X90050000Y-73449999D01*
G75*
G02*
X89799999Y-73700000I-250001J0D01*
G01*
X87600001Y-73700000D01*
G75*
G02*
X87350000Y-73449999I0J250001D01*
G01*
G37*
%TD.AperFunction*%
D12*
G36*
X50781437Y-25796313D02*
G01*
X50903714Y-25918583D01*
X50995718Y-26064998D01*
X51052835Y-26228222D01*
X51073000Y-26407185D01*
X51073000Y-55327208D01*
X51073612Y-55339656D01*
X51090905Y-55515237D01*
X51095762Y-55539655D01*
X51146977Y-55708489D01*
X51156504Y-55731490D01*
X51239673Y-55887088D01*
X51253505Y-55907789D01*
X51365432Y-56044172D01*
X51373801Y-56053407D01*
X53846593Y-58526199D01*
X53855828Y-58534568D01*
X53992211Y-58646495D01*
X54012912Y-58660327D01*
X54168510Y-58743496D01*
X54191511Y-58753023D01*
X54360345Y-58804238D01*
X54384763Y-58809095D01*
X54560344Y-58826388D01*
X54572792Y-58827000D01*
X72627208Y-58827000D01*
X72639656Y-58826388D01*
X72815237Y-58809095D01*
X72839655Y-58804238D01*
X73008489Y-58753023D01*
X73031490Y-58743496D01*
X73187088Y-58660327D01*
X73207789Y-58646495D01*
X73344172Y-58534568D01*
X73353407Y-58526199D01*
X75826199Y-56053407D01*
X75834568Y-56044172D01*
X75946495Y-55907789D01*
X75960327Y-55887088D01*
X76043496Y-55731490D01*
X76053023Y-55708489D01*
X76104238Y-55539655D01*
X76109095Y-55515237D01*
X76126388Y-55339656D01*
X76127000Y-55327208D01*
X76127000Y-50079026D01*
X76142455Y-49922107D01*
X76186408Y-49777214D01*
X76257784Y-49643678D01*
X76357813Y-49521793D01*
X78721793Y-47157813D01*
X78843678Y-47057784D01*
X78977214Y-46986408D01*
X79122107Y-46942455D01*
X79279026Y-46927000D01*
X90492871Y-46927000D01*
X90671830Y-46947164D01*
X90835042Y-47004274D01*
X90981454Y-47096271D01*
X91103729Y-47218546D01*
X91195726Y-47364958D01*
X91252836Y-47528170D01*
X91273000Y-47707129D01*
X91273000Y-55227208D01*
X91273612Y-55239656D01*
X91290905Y-55415237D01*
X91295762Y-55439655D01*
X91346977Y-55608489D01*
X91356504Y-55631490D01*
X91439673Y-55787088D01*
X91453505Y-55807789D01*
X91565432Y-55944172D01*
X91573801Y-55953407D01*
X94142187Y-58521793D01*
X94242216Y-58643678D01*
X94313592Y-58777214D01*
X94357545Y-58922107D01*
X94373000Y-59079026D01*
X94373000Y-73292871D01*
X94352836Y-73471830D01*
X94295726Y-73635042D01*
X94203729Y-73781454D01*
X94081454Y-73903729D01*
X93935042Y-73995726D01*
X93771830Y-74052836D01*
X93592871Y-74073000D01*
X91707129Y-74073000D01*
X91528170Y-74052836D01*
X91364958Y-73995726D01*
X91218546Y-73903729D01*
X91096271Y-73781454D01*
X91004274Y-73635042D01*
X90947164Y-73471830D01*
X90927000Y-73292871D01*
X90927000Y-70650000D01*
X90926201Y-70635780D01*
X90903636Y-70435511D01*
X90897308Y-70407786D01*
X90830745Y-70217560D01*
X90818406Y-70191937D01*
X90711182Y-70021291D01*
X90693451Y-69999056D01*
X90550944Y-69856549D01*
X90528709Y-69838818D01*
X90358063Y-69731594D01*
X90332440Y-69719255D01*
X90142214Y-69652692D01*
X90114489Y-69646364D01*
X89914220Y-69623799D01*
X89900000Y-69623000D01*
X56800000Y-69623000D01*
X56785780Y-69623799D01*
X56585511Y-69646364D01*
X56557786Y-69652692D01*
X56367560Y-69719255D01*
X56341937Y-69731594D01*
X56171291Y-69838818D01*
X56149056Y-69856549D01*
X56006549Y-69999056D01*
X55988818Y-70021291D01*
X55881594Y-70191937D01*
X55869255Y-70217560D01*
X55802692Y-70407786D01*
X55796364Y-70435511D01*
X55773799Y-70635780D01*
X55773000Y-70650000D01*
X55773000Y-86492871D01*
X55752836Y-86671830D01*
X55695726Y-86835042D01*
X55603729Y-86981454D01*
X55481454Y-87103729D01*
X55335042Y-87195726D01*
X55171830Y-87252836D01*
X54992871Y-87273000D01*
X52773929Y-87273000D01*
X52594970Y-87252836D01*
X52431758Y-87195726D01*
X52285346Y-87103729D01*
X52163071Y-86981454D01*
X52071074Y-86835042D01*
X52013964Y-86671830D01*
X51993800Y-86492871D01*
X51993800Y-70648400D01*
X51993001Y-70634180D01*
X51970436Y-70433911D01*
X51964108Y-70406186D01*
X51897545Y-70215960D01*
X51885206Y-70190337D01*
X51777982Y-70019691D01*
X51760251Y-69997456D01*
X51617744Y-69854949D01*
X51595509Y-69837218D01*
X51424863Y-69729994D01*
X51399240Y-69717655D01*
X51209014Y-69651092D01*
X51181289Y-69644764D01*
X50981020Y-69622199D01*
X50966800Y-69621400D01*
X26408729Y-69621400D01*
X26229770Y-69601236D01*
X26066558Y-69544126D01*
X25920146Y-69452129D01*
X25797871Y-69329854D01*
X25710000Y-69190008D01*
X25710000Y-32207909D01*
X27034350Y-32207909D01*
X27034350Y-32792091D01*
X27148318Y-33365048D01*
X27371875Y-33904762D01*
X27696429Y-34390492D01*
X28109508Y-34803571D01*
X28595238Y-35128125D01*
X29134952Y-35351682D01*
X29707909Y-35465650D01*
X30292091Y-35465650D01*
X30865048Y-35351682D01*
X31404762Y-35128125D01*
X31890492Y-34803571D01*
X32303571Y-34390492D01*
X32628125Y-33904762D01*
X32851682Y-33365048D01*
X32965650Y-32792091D01*
X32965650Y-32207909D01*
X32851682Y-31634952D01*
X32628125Y-31095238D01*
X32303571Y-30609508D01*
X31890492Y-30196429D01*
X31404762Y-29871875D01*
X30865048Y-29648318D01*
X30292091Y-29534350D01*
X29707909Y-29534350D01*
X29134952Y-29648318D01*
X28595238Y-29871875D01*
X28109508Y-30196429D01*
X27696429Y-30609508D01*
X27371875Y-31095238D01*
X27148318Y-31634952D01*
X27034350Y-32207909D01*
X25710000Y-32207909D01*
X25710000Y-26059938D01*
X25797859Y-25920104D01*
X25920121Y-25797834D01*
X26059896Y-25710000D01*
X50644057Y-25710000D01*
X50781437Y-25796313D01*
G37*
X50781437Y-25796313D02*
X50903714Y-25918583D01*
X50995718Y-26064998D01*
X51052835Y-26228222D01*
X51073000Y-26407185D01*
X51073000Y-55327208D01*
X51073612Y-55339656D01*
X51090905Y-55515237D01*
X51095762Y-55539655D01*
X51146977Y-55708489D01*
X51156504Y-55731490D01*
X51239673Y-55887088D01*
X51253505Y-55907789D01*
X51365432Y-56044172D01*
X51373801Y-56053407D01*
X53846593Y-58526199D01*
X53855828Y-58534568D01*
X53992211Y-58646495D01*
X54012912Y-58660327D01*
X54168510Y-58743496D01*
X54191511Y-58753023D01*
X54360345Y-58804238D01*
X54384763Y-58809095D01*
X54560344Y-58826388D01*
X54572792Y-58827000D01*
X72627208Y-58827000D01*
X72639656Y-58826388D01*
X72815237Y-58809095D01*
X72839655Y-58804238D01*
X73008489Y-58753023D01*
X73031490Y-58743496D01*
X73187088Y-58660327D01*
X73207789Y-58646495D01*
X73344172Y-58534568D01*
X73353407Y-58526199D01*
X75826199Y-56053407D01*
X75834568Y-56044172D01*
X75946495Y-55907789D01*
X75960327Y-55887088D01*
X76043496Y-55731490D01*
X76053023Y-55708489D01*
X76104238Y-55539655D01*
X76109095Y-55515237D01*
X76126388Y-55339656D01*
X76127000Y-55327208D01*
X76127000Y-50079026D01*
X76142455Y-49922107D01*
X76186408Y-49777214D01*
X76257784Y-49643678D01*
X76357813Y-49521793D01*
X78721793Y-47157813D01*
X78843678Y-47057784D01*
X78977214Y-46986408D01*
X79122107Y-46942455D01*
X79279026Y-46927000D01*
X90492871Y-46927000D01*
X90671830Y-46947164D01*
X90835042Y-47004274D01*
X90981454Y-47096271D01*
X91103729Y-47218546D01*
X91195726Y-47364958D01*
X91252836Y-47528170D01*
X91273000Y-47707129D01*
X91273000Y-55227208D01*
X91273612Y-55239656D01*
X91290905Y-55415237D01*
X91295762Y-55439655D01*
X91346977Y-55608489D01*
X91356504Y-55631490D01*
X91439673Y-55787088D01*
X91453505Y-55807789D01*
X91565432Y-55944172D01*
X91573801Y-55953407D01*
X94142187Y-58521793D01*
X94242216Y-58643678D01*
X94313592Y-58777214D01*
X94357545Y-58922107D01*
X94373000Y-59079026D01*
X94373000Y-73292871D01*
X94352836Y-73471830D01*
X94295726Y-73635042D01*
X94203729Y-73781454D01*
X94081454Y-73903729D01*
X93935042Y-73995726D01*
X93771830Y-74052836D01*
X93592871Y-74073000D01*
X91707129Y-74073000D01*
X91528170Y-74052836D01*
X91364958Y-73995726D01*
X91218546Y-73903729D01*
X91096271Y-73781454D01*
X91004274Y-73635042D01*
X90947164Y-73471830D01*
X90927000Y-73292871D01*
X90927000Y-70650000D01*
X90926201Y-70635780D01*
X90903636Y-70435511D01*
X90897308Y-70407786D01*
X90830745Y-70217560D01*
X90818406Y-70191937D01*
X90711182Y-70021291D01*
X90693451Y-69999056D01*
X90550944Y-69856549D01*
X90528709Y-69838818D01*
X90358063Y-69731594D01*
X90332440Y-69719255D01*
X90142214Y-69652692D01*
X90114489Y-69646364D01*
X89914220Y-69623799D01*
X89900000Y-69623000D01*
X56800000Y-69623000D01*
X56785780Y-69623799D01*
X56585511Y-69646364D01*
X56557786Y-69652692D01*
X56367560Y-69719255D01*
X56341937Y-69731594D01*
X56171291Y-69838818D01*
X56149056Y-69856549D01*
X56006549Y-69999056D01*
X55988818Y-70021291D01*
X55881594Y-70191937D01*
X55869255Y-70217560D01*
X55802692Y-70407786D01*
X55796364Y-70435511D01*
X55773799Y-70635780D01*
X55773000Y-70650000D01*
X55773000Y-86492871D01*
X55752836Y-86671830D01*
X55695726Y-86835042D01*
X55603729Y-86981454D01*
X55481454Y-87103729D01*
X55335042Y-87195726D01*
X55171830Y-87252836D01*
X54992871Y-87273000D01*
X52773929Y-87273000D01*
X52594970Y-87252836D01*
X52431758Y-87195726D01*
X52285346Y-87103729D01*
X52163071Y-86981454D01*
X52071074Y-86835042D01*
X52013964Y-86671830D01*
X51993800Y-86492871D01*
X51993800Y-70648400D01*
X51993001Y-70634180D01*
X51970436Y-70433911D01*
X51964108Y-70406186D01*
X51897545Y-70215960D01*
X51885206Y-70190337D01*
X51777982Y-70019691D01*
X51760251Y-69997456D01*
X51617744Y-69854949D01*
X51595509Y-69837218D01*
X51424863Y-69729994D01*
X51399240Y-69717655D01*
X51209014Y-69651092D01*
X51181289Y-69644764D01*
X50981020Y-69622199D01*
X50966800Y-69621400D01*
X26408729Y-69621400D01*
X26229770Y-69601236D01*
X26066558Y-69544126D01*
X25920146Y-69452129D01*
X25797871Y-69329854D01*
X25710000Y-69190008D01*
X25710000Y-32207909D01*
X27034350Y-32207909D01*
X27034350Y-32792091D01*
X27148318Y-33365048D01*
X27371875Y-33904762D01*
X27696429Y-34390492D01*
X28109508Y-34803571D01*
X28595238Y-35128125D01*
X29134952Y-35351682D01*
X29707909Y-35465650D01*
X30292091Y-35465650D01*
X30865048Y-35351682D01*
X31404762Y-35128125D01*
X31890492Y-34803571D01*
X32303571Y-34390492D01*
X32628125Y-33904762D01*
X32851682Y-33365048D01*
X32965650Y-32792091D01*
X32965650Y-32207909D01*
X32851682Y-31634952D01*
X32628125Y-31095238D01*
X32303571Y-30609508D01*
X31890492Y-30196429D01*
X31404762Y-29871875D01*
X30865048Y-29648318D01*
X30292091Y-29534350D01*
X29707909Y-29534350D01*
X29134952Y-29648318D01*
X28595238Y-29871875D01*
X28109508Y-30196429D01*
X27696429Y-30609508D01*
X27371875Y-31095238D01*
X27148318Y-31634952D01*
X27034350Y-32207909D01*
X25710000Y-32207909D01*
X25710000Y-26059938D01*
X25797859Y-25920104D01*
X25920121Y-25797834D01*
X26059896Y-25710000D01*
X50644057Y-25710000D01*
X50781437Y-25796313D01*
G36*
X124081454Y-25796271D02*
G01*
X124203729Y-25918546D01*
X124290000Y-26055845D01*
X124290001Y-86847544D01*
X124203636Y-86984946D01*
X124081302Y-87107226D01*
X123934824Y-87199205D01*
X123771542Y-87256276D01*
X123592524Y-87276372D01*
X62906790Y-87249403D01*
X62727883Y-87229171D01*
X62564736Y-87172019D01*
X62418389Y-87080004D01*
X62296182Y-86957743D01*
X62204231Y-86811353D01*
X62147153Y-86648183D01*
X62127000Y-86469270D01*
X62127000Y-82207909D01*
X117034350Y-82207909D01*
X117034350Y-82792091D01*
X117148318Y-83365048D01*
X117371875Y-83904762D01*
X117696429Y-84390492D01*
X118109508Y-84803571D01*
X118595238Y-85128125D01*
X119134952Y-85351682D01*
X119707909Y-85465650D01*
X120292091Y-85465650D01*
X120865048Y-85351682D01*
X121404762Y-85128125D01*
X121890492Y-84803571D01*
X122303571Y-84390492D01*
X122628125Y-83904762D01*
X122851682Y-83365048D01*
X122965650Y-82792091D01*
X122965650Y-82207909D01*
X122851682Y-81634952D01*
X122628125Y-81095238D01*
X122303571Y-80609508D01*
X121890492Y-80196429D01*
X121404762Y-79871875D01*
X120865048Y-79648318D01*
X120292091Y-79534350D01*
X119707909Y-79534350D01*
X119134952Y-79648318D01*
X118595238Y-79871875D01*
X118109508Y-80196429D01*
X117696429Y-80609508D01*
X117371875Y-81095238D01*
X117148318Y-81634952D01*
X117034350Y-82207909D01*
X62127000Y-82207909D01*
X62127000Y-73608940D01*
X62147162Y-73429983D01*
X62204267Y-73266778D01*
X62296253Y-73120372D01*
X62418512Y-72998102D01*
X62564911Y-72906101D01*
X62728111Y-72848982D01*
X62907059Y-72828804D01*
X82272482Y-72827035D01*
X82428852Y-72842366D01*
X82573285Y-72885998D01*
X82706476Y-72956875D01*
X82828183Y-73056239D01*
X86622174Y-76828300D01*
X86631397Y-76836614D01*
X86767561Y-76947784D01*
X86788215Y-76961520D01*
X86943390Y-77044102D01*
X86966321Y-77053561D01*
X87134589Y-77104405D01*
X87158921Y-77109227D01*
X87333863Y-77126393D01*
X87346265Y-77127000D01*
X97850000Y-77127000D01*
X97864220Y-77126201D01*
X98064489Y-77103636D01*
X98092214Y-77097308D01*
X98282440Y-77030745D01*
X98308063Y-77018406D01*
X98478709Y-76911182D01*
X98500944Y-76893451D01*
X98643451Y-76750944D01*
X98661182Y-76728709D01*
X98768406Y-76558063D01*
X98780745Y-76532440D01*
X98847308Y-76342214D01*
X98853636Y-76314489D01*
X98876201Y-76114220D01*
X98877000Y-76100000D01*
X98877000Y-44368370D01*
X98876401Y-44356055D01*
X98859475Y-44182328D01*
X98854721Y-44158160D01*
X98804578Y-43990968D01*
X98795248Y-43968173D01*
X98713776Y-43813805D01*
X98700221Y-43793239D01*
X98590483Y-43657500D01*
X98582275Y-43648299D01*
X96155045Y-41179929D01*
X96145779Y-41171397D01*
X96008777Y-41057266D01*
X95987943Y-41043155D01*
X95831129Y-40958275D01*
X95807924Y-40948548D01*
X95637454Y-40896249D01*
X95612786Y-40891289D01*
X95435351Y-40873625D01*
X95422770Y-40873000D01*
X78372792Y-40873000D01*
X78360344Y-40873612D01*
X78184763Y-40890905D01*
X78160345Y-40895762D01*
X77991511Y-40946977D01*
X77968510Y-40956504D01*
X77812912Y-41039673D01*
X77792211Y-41053505D01*
X77655828Y-41165432D01*
X77646593Y-41173801D01*
X75173801Y-43646593D01*
X75165432Y-43655828D01*
X75053505Y-43792211D01*
X75039673Y-43812912D01*
X74956504Y-43968510D01*
X74946977Y-43991511D01*
X74895762Y-44160345D01*
X74890905Y-44184763D01*
X74873612Y-44360344D01*
X74873000Y-44372792D01*
X74873000Y-54320974D01*
X74857545Y-54477893D01*
X74813592Y-54622786D01*
X74742216Y-54756322D01*
X74642187Y-54878207D01*
X72178207Y-57342187D01*
X72056322Y-57442216D01*
X71922786Y-57513592D01*
X71777893Y-57557545D01*
X71620974Y-57573000D01*
X62279026Y-57573000D01*
X62122107Y-57557545D01*
X61977214Y-57513592D01*
X61843678Y-57442216D01*
X61721793Y-57342187D01*
X59157813Y-54778207D01*
X59057784Y-54656322D01*
X58986408Y-54522786D01*
X58942455Y-54377893D01*
X58927000Y-54220974D01*
X58927000Y-32207909D01*
X117034350Y-32207909D01*
X117034350Y-32792091D01*
X117148318Y-33365048D01*
X117371875Y-33904762D01*
X117696429Y-34390492D01*
X118109508Y-34803571D01*
X118595238Y-35128125D01*
X119134952Y-35351682D01*
X119707909Y-35465650D01*
X120292091Y-35465650D01*
X120865048Y-35351682D01*
X121404762Y-35128125D01*
X121890492Y-34803571D01*
X122303571Y-34390492D01*
X122628125Y-33904762D01*
X122851682Y-33365048D01*
X122965650Y-32792091D01*
X122965650Y-32207909D01*
X122851682Y-31634952D01*
X122628125Y-31095238D01*
X122303571Y-30609508D01*
X121890492Y-30196429D01*
X121404762Y-29871875D01*
X120865048Y-29648318D01*
X120292091Y-29534350D01*
X119707909Y-29534350D01*
X119134952Y-29648318D01*
X118595238Y-29871875D01*
X118109508Y-30196429D01*
X117696429Y-30609508D01*
X117371875Y-31095238D01*
X117148318Y-31634952D01*
X117034350Y-32207909D01*
X58927000Y-32207909D01*
X58927000Y-26407129D01*
X58947164Y-26228170D01*
X59004274Y-26064958D01*
X59096271Y-25918546D01*
X59218546Y-25796271D01*
X59355845Y-25710000D01*
X123944155Y-25710000D01*
X124081454Y-25796271D01*
G37*
X124081454Y-25796271D02*
X124203729Y-25918546D01*
X124290000Y-26055845D01*
X124290001Y-86847544D01*
X124203636Y-86984946D01*
X124081302Y-87107226D01*
X123934824Y-87199205D01*
X123771542Y-87256276D01*
X123592524Y-87276372D01*
X62906790Y-87249403D01*
X62727883Y-87229171D01*
X62564736Y-87172019D01*
X62418389Y-87080004D01*
X62296182Y-86957743D01*
X62204231Y-86811353D01*
X62147153Y-86648183D01*
X62127000Y-86469270D01*
X62127000Y-82207909D01*
X117034350Y-82207909D01*
X117034350Y-82792091D01*
X117148318Y-83365048D01*
X117371875Y-83904762D01*
X117696429Y-84390492D01*
X118109508Y-84803571D01*
X118595238Y-85128125D01*
X119134952Y-85351682D01*
X119707909Y-85465650D01*
X120292091Y-85465650D01*
X120865048Y-85351682D01*
X121404762Y-85128125D01*
X121890492Y-84803571D01*
X122303571Y-84390492D01*
X122628125Y-83904762D01*
X122851682Y-83365048D01*
X122965650Y-82792091D01*
X122965650Y-82207909D01*
X122851682Y-81634952D01*
X122628125Y-81095238D01*
X122303571Y-80609508D01*
X121890492Y-80196429D01*
X121404762Y-79871875D01*
X120865048Y-79648318D01*
X120292091Y-79534350D01*
X119707909Y-79534350D01*
X119134952Y-79648318D01*
X118595238Y-79871875D01*
X118109508Y-80196429D01*
X117696429Y-80609508D01*
X117371875Y-81095238D01*
X117148318Y-81634952D01*
X117034350Y-82207909D01*
X62127000Y-82207909D01*
X62127000Y-73608940D01*
X62147162Y-73429983D01*
X62204267Y-73266778D01*
X62296253Y-73120372D01*
X62418512Y-72998102D01*
X62564911Y-72906101D01*
X62728111Y-72848982D01*
X62907059Y-72828804D01*
X82272482Y-72827035D01*
X82428852Y-72842366D01*
X82573285Y-72885998D01*
X82706476Y-72956875D01*
X82828183Y-73056239D01*
X86622174Y-76828300D01*
X86631397Y-76836614D01*
X86767561Y-76947784D01*
X86788215Y-76961520D01*
X86943390Y-77044102D01*
X86966321Y-77053561D01*
X87134589Y-77104405D01*
X87158921Y-77109227D01*
X87333863Y-77126393D01*
X87346265Y-77127000D01*
X97850000Y-77127000D01*
X97864220Y-77126201D01*
X98064489Y-77103636D01*
X98092214Y-77097308D01*
X98282440Y-77030745D01*
X98308063Y-77018406D01*
X98478709Y-76911182D01*
X98500944Y-76893451D01*
X98643451Y-76750944D01*
X98661182Y-76728709D01*
X98768406Y-76558063D01*
X98780745Y-76532440D01*
X98847308Y-76342214D01*
X98853636Y-76314489D01*
X98876201Y-76114220D01*
X98877000Y-76100000D01*
X98877000Y-44368370D01*
X98876401Y-44356055D01*
X98859475Y-44182328D01*
X98854721Y-44158160D01*
X98804578Y-43990968D01*
X98795248Y-43968173D01*
X98713776Y-43813805D01*
X98700221Y-43793239D01*
X98590483Y-43657500D01*
X98582275Y-43648299D01*
X96155045Y-41179929D01*
X96145779Y-41171397D01*
X96008777Y-41057266D01*
X95987943Y-41043155D01*
X95831129Y-40958275D01*
X95807924Y-40948548D01*
X95637454Y-40896249D01*
X95612786Y-40891289D01*
X95435351Y-40873625D01*
X95422770Y-40873000D01*
X78372792Y-40873000D01*
X78360344Y-40873612D01*
X78184763Y-40890905D01*
X78160345Y-40895762D01*
X77991511Y-40946977D01*
X77968510Y-40956504D01*
X77812912Y-41039673D01*
X77792211Y-41053505D01*
X77655828Y-41165432D01*
X77646593Y-41173801D01*
X75173801Y-43646593D01*
X75165432Y-43655828D01*
X75053505Y-43792211D01*
X75039673Y-43812912D01*
X74956504Y-43968510D01*
X74946977Y-43991511D01*
X74895762Y-44160345D01*
X74890905Y-44184763D01*
X74873612Y-44360344D01*
X74873000Y-44372792D01*
X74873000Y-54320974D01*
X74857545Y-54477893D01*
X74813592Y-54622786D01*
X74742216Y-54756322D01*
X74642187Y-54878207D01*
X72178207Y-57342187D01*
X72056322Y-57442216D01*
X71922786Y-57513592D01*
X71777893Y-57557545D01*
X71620974Y-57573000D01*
X62279026Y-57573000D01*
X62122107Y-57557545D01*
X61977214Y-57513592D01*
X61843678Y-57442216D01*
X61721793Y-57342187D01*
X59157813Y-54778207D01*
X59057784Y-54656322D01*
X58986408Y-54522786D01*
X58942455Y-54377893D01*
X58927000Y-54220974D01*
X58927000Y-32207909D01*
X117034350Y-32207909D01*
X117034350Y-32792091D01*
X117148318Y-33365048D01*
X117371875Y-33904762D01*
X117696429Y-34390492D01*
X118109508Y-34803571D01*
X118595238Y-35128125D01*
X119134952Y-35351682D01*
X119707909Y-35465650D01*
X120292091Y-35465650D01*
X120865048Y-35351682D01*
X121404762Y-35128125D01*
X121890492Y-34803571D01*
X122303571Y-34390492D01*
X122628125Y-33904762D01*
X122851682Y-33365048D01*
X122965650Y-32792091D01*
X122965650Y-32207909D01*
X122851682Y-31634952D01*
X122628125Y-31095238D01*
X122303571Y-30609508D01*
X121890492Y-30196429D01*
X121404762Y-29871875D01*
X120865048Y-29648318D01*
X120292091Y-29534350D01*
X119707909Y-29534350D01*
X119134952Y-29648318D01*
X118595238Y-29871875D01*
X118109508Y-30196429D01*
X117696429Y-30609508D01*
X117371875Y-31095238D01*
X117148318Y-31634952D01*
X117034350Y-32207909D01*
X58927000Y-32207909D01*
X58927000Y-26407129D01*
X58947164Y-26228170D01*
X59004274Y-26064958D01*
X59096271Y-25918546D01*
X59218546Y-25796271D01*
X59355845Y-25710000D01*
X123944155Y-25710000D01*
X124081454Y-25796271D01*
M02*
