M48
; DRILL file {KiCad (5.1.6)-1} date 12/17/20 23:04:43
; FORMAT={-:-/ absolute / inch / decimal}
; #@! TF.CreationDate,2020-12-17T23:04:43+01:00
; #@! TF.GenerationSoftware,Kicad,Pcbnew,(5.1.6)-1
; #@! TF.FileFunction,Plated,1,2,PTH
FMAT,2
INCH
T1C0.0394
T2C0.0551
T3C0.0669
%
G90
G05
T2
X1.9213Y-3.0551
X1.9213Y-3.252
X2.1213Y-3.0551
X2.1213Y-3.252
X2.3213Y-3.0551
X2.3213Y-3.252
X2.5213Y-3.0551
X2.5213Y-3.252
T3
X3.4921Y-2.8484
X3.648Y-2.8484
X3.8039Y-2.8484
X3.9598Y-2.8484
T1
G00X1.9434Y-2.0643
M15
G01X1.9434Y-1.8871
M16
G05
G00X2.0768Y-1.8307
M15
G01X2.2539Y-1.8307
M16
G05
G00X2.2539Y-2.1207
M15
G01X2.0768Y-2.1207
M16
G05
G00X2.3884Y-2.0643
M15
G01X2.3884Y-1.8871
M16
G05
G00X3.5182Y-2.0643
M15
G01X3.5182Y-1.8871
M16
G05
G00X3.6516Y-1.8307
M15
G01X3.8287Y-1.8307
M16
G05
G00X3.8287Y-2.1207
M15
G01X3.6516Y-2.1207
M16
G05
G00X3.9632Y-2.0643
M15
G01X3.9632Y-1.8871
M16
G05
T0
M30
